<svg viewBox="0 0 451 64" fill="none" xmlns="http://www.w3.org/2000/svg">
<path d="M108.027 8.66309V54.5633H115.908V22.9324L116.253 22.9251L128.982 48.1377H135.157L147.813 22.8666H148.165V54.5633H156.046V8.66309L146.649 8.6704L132.066 38.3056L117.351 8.66309H108.027Z" fill="white"/>
<path d="M262.492 36.4634C261.532 34.7675 260.206 33.3786 258.551 32.3332C257.636 31.7411 256.625 31.3025 255.563 31.032L254.969 30.8785L255.548 30.6811C256.097 30.4911 256.632 30.2718 257.145 30.0232L257.372 29.9063C259.027 29.0802 260.375 27.8667 261.378 26.3024C262.382 24.738 262.887 22.7716 262.887 20.4689C262.887 18.1662 262.338 16.1121 261.247 14.3723C260.228 12.6983 258.705 11.3532 256.72 10.3663L256.31 10.169C254.178 9.16748 251.461 8.66309 248.231 8.66309H230.228V54.5559H248.883C252.106 54.5559 254.874 54.0223 257.094 52.9843C259.269 51.917 260.946 50.4623 262.074 48.6494L262.147 48.5251C263.327 46.6099 263.92 44.4314 263.92 42.0337C263.92 40.1185 263.495 38.3494 262.653 36.7778L262.477 36.4634H262.492ZM238.123 15.0302H247.059C249.63 15.0302 251.6 15.6223 252.904 16.7992L252.919 16.8139C254.215 17.9469 254.874 19.5259 254.874 21.5216C254.874 23.5172 254.215 25.1986 252.904 26.3682C251.593 27.5012 249.652 28.0787 247.118 28.0787H238.116V15.0302H238.123ZM253.761 46.3028C252.325 47.5236 250.289 48.1377 247.718 48.1377H238.123V34.0438H247.587C250.157 34.0438 252.216 34.709 253.695 36.0102C255.175 37.2748 255.929 39.0147 255.929 41.1931C255.929 43.3715 255.197 45.0894 253.761 46.3101V46.3028Z" fill="white"/>
<path d="M203.831 9.10899C202.981 8.29756 201.882 7.89551 200.549 7.89551C199.216 7.89551 198.11 8.29025 197.209 9.10168C196.367 9.86193 195.957 10.8415 195.957 12.0769C195.957 13.3123 196.36 14.2772 197.224 15.1398C198.095 15.9293 199.216 16.3314 200.549 16.3314C201.882 16.3314 202.966 15.9366 203.816 15.1325L203.984 14.9717C204.753 14.1749 205.142 13.2026 205.142 12.0769C205.142 10.8707 204.687 9.84 203.831 9.10168V9.10899Z" fill="white"/>
<path d="M204.102 22.2745H197.012V54.3293H204.102V22.2745Z" fill="white"/>
<path d="M183.945 23.1809L183.696 23.0786C181.579 22.0259 178.986 21.4923 175.976 21.4923C173.471 21.4923 171.134 21.9675 169.018 22.8959C166.952 23.7731 165.275 25.0523 164.015 26.6825C162.836 28.1811 162.089 29.994 161.796 32.0773H168.769C169.127 30.4764 169.948 29.2703 171.222 28.4881C172.533 27.6328 174.137 27.1942 175.983 27.1942C177.609 27.1942 178.957 27.4939 180.012 28.086C181.081 28.6928 181.879 29.6212 182.385 30.8639L182.473 31.0832C182.905 32.2162 183.124 33.6271 183.124 35.2938V35.6593H174.482C171.501 35.6593 168.959 36.0906 166.93 36.9313C164.916 37.7281 163.371 38.8684 162.33 40.3231C161.342 41.7632 160.836 43.5104 160.836 45.5133C160.836 47.2166 161.261 48.8175 162.089 50.2722C162.916 51.7196 164.206 52.8965 165.912 53.7664C167.633 54.6437 169.838 55.0896 172.46 55.0896C173.8 55.0896 175.016 54.9434 176.078 54.651H176.108C177.192 54.3512 178.158 53.9565 178.986 53.4521C179.821 52.9038 180.568 52.2752 181.191 51.5734L181.447 51.2956C182.004 50.6669 182.465 49.9798 182.831 49.2488L183.351 48.2108L184.26 54.3147H190.222V34.3873C190.222 31.6972 189.65 29.3726 188.515 27.4793C187.468 25.6225 185.93 24.1824 183.952 23.1809H183.945ZM182.912 40.6009L182.897 40.7106C182.758 41.8583 182.487 42.9475 182.106 43.9636C181.696 45.0528 181.125 46.025 180.348 46.9315C179.623 47.7941 178.73 48.4812 177.682 48.9783C176.672 49.4315 175.5 49.6655 174.196 49.6655C173.046 49.6655 172.021 49.49 171.156 49.1318L171.12 49.1172C170.226 48.7371 169.538 48.1888 169.069 47.4871C168.593 46.778 168.358 45.9227 168.358 44.9431C168.358 43.9636 168.6 43.0937 169.069 42.348C169.552 41.5805 170.336 41.003 171.413 40.6375L171.596 40.5717C172.599 40.2135 173.852 40.0307 175.309 40.0307H182.912V40.5571C182.912 40.5571 182.912 40.5863 182.912 40.6082V40.6009Z" fill="white"/>
<path d="M297.649 29.2337C296.382 26.8726 294.565 24.9719 292.243 23.5903L292.068 23.4807C289.79 22.1575 287.08 21.4923 284.025 21.4923C280.971 21.4923 277.895 22.2379 275.478 23.6488C273.075 25.0816 271.171 27.0919 269.816 29.6212C268.505 32.1651 267.831 35.1695 267.831 38.5614C267.831 41.9533 268.483 44.68 269.875 47.2312C271.23 49.724 273.141 51.6904 275.536 53.072C277.939 54.417 280.773 55.1042 283.959 55.1042C286.457 55.1042 288.735 54.6583 290.72 53.7738C292.705 52.8454 294.397 51.5807 295.744 50.031C296.982 48.569 297.912 46.9096 298.52 45.104H291.299C290.698 46.3686 289.79 47.3993 288.588 48.1669L288.464 48.2473C287.248 49.0149 285.717 49.4023 283.894 49.4023C282.187 49.4023 280.62 49.0149 279.221 48.2546C277.851 47.4286 276.752 46.2443 275.939 44.7238C275.309 43.4592 274.936 41.946 274.833 40.2135L274.811 39.8261H299.473C299.531 39.3582 299.56 38.9415 299.56 38.5614V37.1286C299.56 34.2192 298.923 31.5729 297.663 29.263L297.649 29.241V29.2337ZM275.141 35.5423H274.921L274.936 35.3084L274.965 35.1257C275.156 33.8025 275.507 32.6695 276.005 31.7557C276.818 30.2279 277.939 29.0656 279.345 28.2907C280.744 27.5305 282.297 27.143 283.952 27.143C286.303 27.143 288.288 27.874 289.87 29.3214L290.156 29.5846C291.562 30.9735 292.317 32.8449 292.397 35.1695L292.412 35.5497H275.134L275.141 35.5423Z" fill="white"/>
<path d="M446.407 16.3387C447.755 16.3387 448.824 15.9439 449.674 15.1398C450.553 14.3065 450.992 13.2757 450.992 12.0842C450.992 10.8927 450.538 9.84731 449.681 9.10899C448.832 8.29756 447.733 7.89551 446.4 7.89551C445.067 7.89551 443.961 8.29025 443.06 9.10168C442.218 9.86193 441.808 10.8415 441.808 12.0769C441.808 13.3123 442.21 14.2772 443.067 15.1325C443.939 15.922 445.06 16.3314 446.4 16.3314L446.407 16.3387Z" fill="white"/>
<path d="M397.942 46.0177C396.572 46.0177 395.451 46.4417 394.617 47.275C393.782 48.1084 393.349 49.161 393.349 50.3965C393.349 51.5661 393.76 52.5456 394.617 53.3863C395.451 54.2196 396.572 54.6436 397.942 54.6436C399.311 54.6436 400.337 54.2416 401.208 53.3863C402.051 52.5456 402.468 51.5661 402.468 50.3965C402.468 49.1537 402.043 48.1011 401.208 47.275C400.373 46.4417 399.275 46.0177 397.942 46.0177Z" fill="white"/>
<path d="M449.96 22.2745H442.87V54.3293H449.96V22.2745Z" fill="white"/>
<path d="M429.759 23.159L429.547 23.0786C427.43 22.0259 424.837 21.4923 421.827 21.4923C419.322 21.4923 416.985 21.9675 414.868 22.8959C412.803 23.7731 411.126 25.0523 409.866 26.6825C408.687 28.1811 407.94 29.994 407.647 32.0773H414.619C414.978 30.4764 415.799 29.2703 417.073 28.4881C418.384 27.6328 419.988 27.1942 421.834 27.1942C423.46 27.1942 424.808 27.4939 425.855 28.086C426.917 28.6855 427.715 29.6212 428.236 30.8639L428.323 31.0832C428.756 32.2162 428.975 33.6271 428.975 35.2938V35.6593H420.332C417.359 35.6593 414.817 36.0906 412.788 36.9313C410.774 37.7281 409.229 38.8684 408.189 40.3231C407.2 41.7632 406.694 43.5104 406.694 45.5133C406.694 47.2166 407.119 48.8175 407.947 50.2722C408.782 51.7269 410.064 52.8965 411.77 53.7664C413.491 54.6437 415.696 55.0896 418.318 55.0896C419.659 55.0896 420.874 54.9434 421.937 54.651H421.966C423.05 54.3512 424.017 53.9565 424.844 53.4521C425.679 52.9038 426.426 52.2752 427.049 51.5734L427.305 51.2956C427.862 50.6669 428.323 49.9798 428.69 49.2488L429.21 48.2108L430.118 54.3147H436.08V34.3873C436.08 31.6972 435.509 29.3726 434.373 27.4793C433.311 25.6079 431.766 24.1605 429.766 23.159H429.759ZM428.763 40.5936L428.748 40.7106C428.609 41.8583 428.345 42.9475 427.965 43.9636C427.554 45.0528 426.976 46.025 426.207 46.9315C425.482 47.7941 424.588 48.4812 423.541 48.9783C422.537 49.4315 421.373 49.6655 420.054 49.6655C418.904 49.6655 417.879 49.49 417.015 49.1318L416.978 49.1172C416.084 48.7371 415.396 48.1888 414.927 47.4871C414.451 46.778 414.217 45.9227 414.217 44.9431C414.217 43.9636 414.458 43.0937 414.927 42.348C415.41 41.5805 416.194 41.003 417.271 40.6375C418.304 40.2354 419.615 40.0307 421.167 40.0307H428.77V40.5571C428.77 40.5571 428.77 40.5863 428.77 40.5936H428.763Z" fill="white"/>
<path d="M326.99 23.1883L326.734 23.0859C324.617 22.0333 322.024 21.4996 319.014 21.4996C316.509 21.4996 314.173 21.9748 312.056 22.9032C309.99 23.7804 308.313 25.0597 307.053 26.6898C305.874 28.1884 305.127 30.0013 304.834 32.0847H311.807C312.166 30.4838 312.986 29.2776 314.26 28.4954C315.572 27.6401 317.176 27.2015 319.021 27.2015C320.64 27.2015 321.995 27.5012 323.05 28.0934C324.119 28.6928 324.917 29.6285 325.423 30.8712L325.511 31.0905C325.943 32.2236 326.163 33.6344 326.163 35.3011V35.6666H317.52C314.539 35.6666 311.997 36.0979 309.976 36.9386C307.954 37.7354 306.416 38.8758 305.376 40.3305C304.387 41.7706 303.882 43.5177 303.882 45.5206C303.882 47.2239 304.307 48.8248 305.134 50.2795C305.969 51.7342 307.251 52.9039 308.958 53.7738C310.679 54.651 312.884 55.0969 315.506 55.0969C316.846 55.0969 318.062 54.9507 319.124 54.6583H319.153C320.237 54.3586 321.204 53.9638 322.032 53.4594C322.867 52.9112 323.614 52.2825 324.236 51.5807L324.493 51.3029C325.049 50.6743 325.511 49.9798 325.877 49.2561L326.397 48.2181L327.305 54.322H333.267V34.3947C333.267 31.7045 332.696 29.3799 331.561 27.4866C330.513 25.6298 328.975 24.1898 326.998 23.1883H326.99ZM325.958 40.5936L325.943 40.7106C325.804 41.8583 325.54 42.9475 325.152 43.9636C324.742 45.0528 324.163 46.025 323.394 46.9315C322.669 47.7941 321.775 48.4812 320.728 48.9783C319.717 49.4316 318.553 49.6655 317.242 49.6655C316.092 49.6655 315.066 49.49 314.202 49.1318L314.165 49.1172C313.272 48.7371 312.583 48.1888 312.114 47.4871C311.638 46.778 311.404 45.9227 311.404 44.9431C311.404 43.9636 311.646 43.0937 312.114 42.3481C312.598 41.5805 313.382 41.003 314.458 40.6375L314.641 40.5717C315.645 40.2135 316.897 40.0308 318.355 40.0308H325.958V40.5571C325.958 40.5571 325.958 40.5863 325.958 40.6009V40.5936Z" fill="white"/>
<path d="M360.067 37.1213L359.899 37.0848L359.708 37.019C357.848 36.3757 355.695 35.8055 353.307 35.3376C351.703 34.9721 350.436 34.6286 349.418 34.285C348.319 33.8756 347.469 33.3932 346.876 32.8449C346.268 32.187 345.975 31.4852 345.975 30.7542C345.975 29.5919 346.466 28.6562 347.433 27.9837C348.407 27.2892 349.791 26.9383 351.549 26.9383C353.307 26.9383 354.655 27.2965 355.731 28.0422C356.727 28.6854 357.372 29.6065 357.65 30.7761H364.367C363.927 27.9179 362.631 25.6664 360.529 24.0801C358.331 22.3549 355.336 21.485 351.622 21.485C348.993 21.485 346.7 21.9309 344.803 22.8154C342.965 23.6488 341.522 24.8111 340.519 26.2658C339.566 27.7059 339.083 29.3653 339.083 31.2001C339.083 32.6841 339.398 33.956 340.013 34.9794C340.665 35.9955 341.544 36.8581 342.628 37.5234C343.778 38.2032 345.067 38.7807 346.451 39.2412C347.74 39.6214 349.073 39.9503 350.392 40.2208L350.97 40.3378C352.443 40.6375 353.732 40.9664 354.794 41.3246C355.922 41.639 356.808 42.1068 357.416 42.7135C358.053 43.3495 358.368 44.2414 358.368 45.3744C358.368 46.1347 358.148 46.8584 357.724 47.5236C357.299 48.1815 356.632 48.7298 355.746 49.1537L355.563 49.2268C354.721 49.5485 353.68 49.7093 352.391 49.7093C351.022 49.7093 349.755 49.4754 348.722 49.0295C347.711 48.5689 346.898 47.9403 346.297 47.1654C345.763 46.4271 345.375 45.6303 345.14 44.7677H338.014C338.27 46.6975 338.951 48.452 340.042 49.9725C341.258 51.5588 342.914 52.8307 344.979 53.7518C347.088 54.6363 349.608 55.0822 352.457 55.0822C355.306 55.0822 357.482 54.6802 359.481 53.8103C361.408 52.9331 362.909 51.705 363.949 50.1698C365.033 48.6274 365.561 46.8364 365.517 44.8554C365.517 42.6551 364.997 40.9372 363.971 39.7529C363.004 38.6345 361.686 37.75 360.045 37.1213H360.067Z" fill="white"/>
<path d="M212.327 30.9735V54.1173H219.497V31.7119H217.278L217.344 31.2879L220.699 8.22449H213.55L210.232 30.9735H212.327Z" fill="white"/>
<path d="M379.836 29.7893H388.742L389.79 22.6473H379.77V14.0433H372.665V47.0412V48.781C372.665 51.7635 375.097 54.1904 378.085 54.1904H390.097V47.0485H379.829V29.8039L379.836 29.7893Z" fill="white"/>
<path d="M92.8661 11.4342C92.7782 9.35078 91.5111 7.5598 89.5701 6.75569L89.5188 6.73376L73.9325 0.381277C72.1747 -0.335114 70.1824 -0.0280895 68.7175 1.18539L46.4514 19.7311L46.4221 19.7092L41.9761 23.4154L41.4854 23.8687L36.666 27.8892L25.4962 18.5834C24.4196 17.6989 22.962 17.4723 21.6949 17.9986L15.5717 20.4914C14.1214 21.0762 13.1839 22.4651 13.1839 24.0295V39.9728C13.1839 41.4933 14.0482 42.8238 15.4398 43.4524L15.579 43.5109L21.6949 46.0037C22.9766 46.5081 24.4635 46.2814 25.4962 45.4115L36.6733 36.1058L42.0054 40.5503L20.8159 58.2042L20.5083 58.08L5.7643 52.0784V51.7129C5.75698 46.6689 5.74233 34.7973 5.74233 32.0048C5.74233 21.3174 5.74965 15.0527 5.7643 12.2968V11.9312L20.8013 5.80538L37.2812 19.5264L41.7418 15.8056L24.0314 1.08305C23.1231 0.373966 22.0098 0.00846105 20.8892 0.00846105C20.2373 0.00846105 19.5854 0.132733 18.9629 0.381277L3.37655 6.72645C1.34037 7.55249 0.0219732 9.49698 0.0219732 11.6681C0 16.0468 0 27.6041 0 31.4054V32.5969C0 36.3982 0 47.9555 0.0219732 52.3196C0.0219732 54.498 1.34037 56.4425 3.37655 57.2758L18.9775 63.6283C20.6988 64.3301 22.7203 64.0231 24.1412 62.8535L24.1778 62.8169L56.2368 36.1204L67.4065 45.4262C68.4612 46.3034 69.9261 46.5373 71.2152 46.0256L77.331 43.5402C78.7813 42.9553 79.7188 41.5664 79.7188 40.0021V24.0368C79.7188 22.4724 78.7813 21.0835 77.331 20.4987L71.2078 18.0059C69.9187 17.4796 68.4612 17.7062 67.3991 18.5908L56.2294 27.8965L50.8973 23.452L72.1014 5.81269L87.153 11.9386V12.3041C87.1604 17.348 87.175 29.2197 87.175 32.0121C87.175 43.0358 87.175 49.1105 87.153 51.7202V52.0857L72.0941 58.2115L71.8377 57.9995L55.5922 44.4685L51.1316 48.1894L68.7029 62.8242C70.1165 64.0085 72.1454 64.3447 73.9032 63.6283L89.5042 57.2758C91.533 56.4571 92.8514 54.5126 92.8588 52.3269L92.8734 42.239C92.8734 38.3207 92.8734 34.4829 92.8734 32.6042V31.091C92.8734 26.9462 92.8734 15.9299 92.8514 11.69V11.4415L92.8661 11.4342ZM32.5863 31.9829L31.8172 32.7212L22.7496 40.2798L18.8896 38.7082V25.3014L22.7496 23.7371L31.8172 31.2957L32.5863 31.9829ZM60.2286 31.9829L61.0709 31.2738L70.1458 23.7151L74.0058 25.2795V38.7009L70.1458 40.2652L61.0709 32.7066L60.2286 31.9902V31.9829ZM52.2596 31.9902L46.4587 36.8222L40.6358 31.9756L45.5797 27.86L46.4367 27.1509L47.2937 27.86L52.2523 31.9829L52.2596 31.9902Z" fill="white"/>
</svg>
