<svg viewBox="0 0 453 64" fill="none" xmlns="http://www.w3.org/2000/svg">
<path d="M110.027 8.66307V54.5632H117.908V22.9324L118.253 22.9251L130.982 48.1377H137.157L149.813 22.8666H150.165V54.5632H158.046V8.66307L148.649 8.67038L134.066 38.3056L119.351 8.66307H110.027Z" fill="#101827"/>
<path d="M264.492 36.4634C263.532 34.7675 262.206 33.3785 260.551 32.3332C259.636 31.7411 258.625 31.3025 257.563 31.032L256.969 30.8785L257.548 30.6811C258.097 30.4911 258.632 30.2718 259.145 30.0232L259.372 29.9062C261.027 29.0802 262.375 27.8667 263.378 26.3024C264.382 24.738 264.887 22.7716 264.887 20.4689C264.887 18.1662 264.338 16.1121 263.247 14.3723C262.228 12.6983 260.705 11.3532 258.72 10.3663L258.31 10.169C256.178 9.16747 253.461 8.66307 250.231 8.66307H232.228V54.5559H250.883C254.106 54.5559 256.874 54.0223 259.094 52.9843C261.269 51.917 262.946 50.4623 264.074 48.6494L264.147 48.5251C265.327 46.6098 265.92 44.4314 265.92 42.0337C265.92 40.1185 265.495 38.3494 264.653 36.7777L264.477 36.4634H264.492ZM240.123 15.0302H249.059C251.63 15.0302 253.6 15.6223 254.904 16.7992L254.919 16.8138C256.215 17.9469 256.874 19.5259 256.874 21.5216C256.874 23.5172 256.215 25.1985 254.904 26.3682C253.593 27.5012 251.652 28.0787 249.118 28.0787H240.116V15.0302H240.123ZM255.761 46.3028C254.325 47.5236 252.289 48.1377 249.718 48.1377H240.123V34.0438H249.587C252.157 34.0438 254.216 34.709 255.695 36.0102C257.175 37.2748 257.929 39.0146 257.929 41.1931C257.929 43.3715 257.197 45.0893 255.761 46.3101V46.3028Z" fill="#101827"/>
<path d="M205.831 9.10899C204.981 8.29756 203.882 7.89551 202.549 7.89551C201.216 7.89551 200.11 8.29025 199.209 9.10168C198.367 9.86193 197.957 10.8415 197.957 12.0769C197.957 13.3123 198.36 14.2772 199.224 15.1398C200.095 15.9293 201.216 16.3314 202.549 16.3314C203.882 16.3314 204.966 15.9366 205.816 15.1325L205.984 14.9717C206.753 14.1749 207.142 13.2026 207.142 12.0769C207.142 10.8707 206.687 9.84 205.831 9.10168V9.10899Z" fill="#101827"/>
<path d="M206.102 22.2745H199.012V54.3293H206.102V22.2745Z" fill="#101827"/>
<path d="M185.945 23.1809L185.696 23.0786C183.579 22.0259 180.986 21.4923 177.976 21.4923C175.471 21.4923 173.134 21.9675 171.018 22.8959C168.952 23.7731 167.275 25.0523 166.015 26.6825C164.836 28.1811 164.089 29.994 163.796 32.0773H170.769C171.127 30.4764 171.948 29.2703 173.222 28.4881C174.533 27.6328 176.137 27.1942 177.983 27.1942C179.609 27.1942 180.957 27.4939 182.012 28.086C183.081 28.6928 183.879 29.6212 184.385 30.8639L184.473 31.0832C184.905 32.2162 185.124 33.6271 185.124 35.2938V35.6593H176.482C173.501 35.6593 170.959 36.0906 168.93 36.9313C166.916 37.7281 165.371 38.8684 164.33 40.3231C163.342 41.7632 162.836 43.5104 162.836 45.5133C162.836 47.2166 163.261 48.8175 164.089 50.2722C164.916 51.7196 166.206 52.8965 167.912 53.7664C169.633 54.6437 171.838 55.0896 174.46 55.0896C175.8 55.0896 177.016 54.9434 178.078 54.651H178.108C179.192 54.3512 180.158 53.9565 180.986 53.4521C181.821 52.9038 182.568 52.2752 183.191 51.5734L183.447 51.2956C184.004 50.6669 184.465 49.9798 184.831 49.2488L185.351 48.2108L186.26 54.3147H192.222V34.3873C192.222 31.6972 191.65 29.3726 190.515 27.4793C189.468 25.6225 187.93 24.1824 185.952 23.1809H185.945ZM184.912 40.6009L184.897 40.7106C184.758 41.8583 184.487 42.9475 184.106 43.9636C183.696 45.0528 183.125 46.025 182.348 46.9315C181.623 47.7941 180.73 48.4812 179.682 48.9783C178.672 49.4315 177.5 49.6655 176.196 49.6655C175.046 49.6655 174.021 49.49 173.156 49.1318L173.12 49.1172C172.226 48.7371 171.538 48.1888 171.069 47.4871C170.593 46.778 170.358 45.9227 170.358 44.9431C170.358 43.9636 170.6 43.0937 171.069 42.348C171.552 41.5805 172.336 41.003 173.413 40.6375L173.596 40.5717C174.599 40.2135 175.852 40.0307 177.309 40.0307H184.912V40.5571C184.912 40.5571 184.912 40.5863 184.912 40.6082V40.6009Z" fill="#101827"/>
<path d="M299.649 29.2337C298.382 26.8726 296.565 24.9719 294.243 23.5903L294.068 23.4807C291.79 22.1575 289.08 21.4923 286.025 21.4923C282.971 21.4923 279.895 22.2379 277.478 23.6488C275.075 25.0816 273.171 27.0919 271.816 29.6212C270.505 32.1651 269.831 35.1695 269.831 38.5614C269.831 41.9533 270.483 44.68 271.875 47.2312C273.23 49.724 275.141 51.6904 277.536 53.072C279.939 54.417 282.773 55.1042 285.959 55.1042C288.457 55.1042 290.735 54.6583 292.72 53.7738C294.705 52.8454 296.397 51.5807 297.744 50.031C298.982 48.569 299.912 46.9096 300.52 45.104H293.299C292.698 46.3686 291.79 47.3993 290.588 48.1669L290.464 48.2473C289.248 49.0149 287.717 49.4023 285.894 49.4023C284.187 49.4023 282.62 49.0149 281.221 48.2546C279.851 47.4286 278.752 46.2443 277.939 44.7238C277.309 43.4592 276.936 41.946 276.833 40.2135L276.811 39.8261H301.473C301.531 39.3582 301.56 38.9415 301.56 38.5614V37.1286C301.56 34.2192 300.923 31.5729 299.663 29.263L299.649 29.241V29.2337ZM277.141 35.5423H276.921L276.936 35.3084L276.965 35.1257C277.156 33.8025 277.507 32.6695 278.005 31.7557C278.818 30.2279 279.939 29.0656 281.345 28.2907C282.744 27.5305 284.297 27.143 285.952 27.143C288.303 27.143 290.288 27.874 291.87 29.3214L292.156 29.5846C293.562 30.9735 294.317 32.8449 294.397 35.1695L294.412 35.5497H277.134L277.141 35.5423Z" fill="#101827"/>
<path d="M448.407 16.3387C449.755 16.3387 450.824 15.9439 451.674 15.1398C452.553 14.3065 452.992 13.2757 452.992 12.0842C452.992 10.8927 452.538 9.84731 451.681 9.10899C450.832 8.29756 449.733 7.89551 448.4 7.89551C447.067 7.89551 445.961 8.29025 445.06 9.10168C444.218 9.86193 443.808 10.8415 443.808 12.0769C443.808 13.3123 444.21 14.2772 445.067 15.1325C445.939 15.922 447.06 16.3314 448.4 16.3314L448.407 16.3387Z" fill="#101827"/>
<path d="M399.942 46.0177C398.572 46.0177 397.451 46.4417 396.617 47.2751C395.782 48.1084 395.349 49.1611 395.349 50.3965C395.349 51.5661 395.76 52.5457 396.617 53.3863C397.451 54.2197 398.572 54.6437 399.942 54.6437C401.311 54.6437 402.337 54.2416 403.208 53.3863C404.051 52.5457 404.468 51.5661 404.468 50.3965C404.468 49.1538 404.043 48.1011 403.208 47.2751C402.373 46.4417 401.275 46.0177 399.942 46.0177Z" fill="#101827"/>
<path d="M451.96 22.2745H444.87V54.3293H451.96V22.2745Z" fill="#101827"/>
<path d="M431.759 23.159L431.547 23.0786C429.43 22.0259 426.837 21.4923 423.827 21.4923C421.322 21.4923 418.985 21.9675 416.868 22.8959C414.803 23.7731 413.126 25.0523 411.866 26.6825C410.687 28.1811 409.94 29.994 409.647 32.0773H416.619C416.978 30.4764 417.799 29.2703 419.073 28.4881C420.384 27.6328 421.988 27.1942 423.834 27.1942C425.46 27.1942 426.808 27.4939 427.855 28.086C428.917 28.6855 429.715 29.6212 430.236 30.8639L430.323 31.0832C430.756 32.2162 430.975 33.6271 430.975 35.2938V35.6593H422.332C419.359 35.6593 416.817 36.0906 414.788 36.9313C412.774 37.7281 411.229 38.8684 410.189 40.3231C409.2 41.7632 408.694 43.5104 408.694 45.5133C408.694 47.2166 409.119 48.8175 409.947 50.2722C410.782 51.7269 412.064 52.8965 413.77 53.7664C415.491 54.6437 417.696 55.0896 420.318 55.0896C421.659 55.0896 422.874 54.9434 423.937 54.651H423.966C425.05 54.3512 426.017 53.9565 426.844 53.4521C427.679 52.9038 428.426 52.2752 429.049 51.5734L429.305 51.2956C429.862 50.6669 430.323 49.9798 430.69 49.2488L431.21 48.2108L432.118 54.3147H438.08V34.3873C438.08 31.6972 437.509 29.3726 436.373 27.4793C435.311 25.6079 433.766 24.1605 431.766 23.159H431.759ZM430.763 40.5936L430.748 40.7106C430.609 41.8583 430.345 42.9475 429.965 43.9636C429.554 45.0528 428.976 46.025 428.207 46.9315C427.482 47.7941 426.588 48.4812 425.541 48.9783C424.537 49.4315 423.373 49.6655 422.054 49.6655C420.904 49.6655 419.879 49.49 419.015 49.1318L418.978 49.1172C418.084 48.7371 417.396 48.1888 416.927 47.4871C416.451 46.778 416.217 45.9227 416.217 44.9431C416.217 43.9636 416.458 43.0937 416.927 42.348C417.41 41.5805 418.194 41.003 419.271 40.6375C420.304 40.2354 421.615 40.0307 423.167 40.0307H430.77V40.5571C430.77 40.5571 430.77 40.5863 430.77 40.5936H430.763Z" fill="#101827"/>
<path d="M328.99 23.1883L328.734 23.0859C326.617 22.0333 324.024 21.4996 321.014 21.4996C318.509 21.4996 316.173 21.9748 314.056 22.9032C311.99 23.7804 310.313 25.0596 309.053 26.6898C307.874 28.1884 307.127 30.0013 306.834 32.0847H313.807C314.166 30.4837 314.986 29.2776 316.26 28.4954C317.572 27.6401 319.176 27.2015 321.021 27.2015C322.64 27.2015 323.995 27.5012 325.05 28.0933C326.119 28.6928 326.917 29.6285 327.423 30.8712L327.511 31.0905C327.943 32.2235 328.163 33.6344 328.163 35.3011V35.6666H319.52C316.539 35.6666 313.997 36.0979 311.976 36.9386C309.954 37.7354 308.416 38.8757 307.376 40.3305C306.387 41.7705 305.882 43.5177 305.882 45.5206C305.882 47.2239 306.307 48.8248 307.134 50.2795C307.969 51.7342 309.251 52.9038 310.958 53.7737C312.679 54.651 314.884 55.0969 317.506 55.0969C318.846 55.0969 320.062 54.9507 321.124 54.6583H321.153C322.237 54.3586 323.204 53.9638 324.032 53.4594C324.867 52.9111 325.614 52.2825 326.236 51.5807L326.493 51.3029C327.049 50.6743 327.511 49.9798 327.877 49.2561L328.397 48.2181L329.305 54.322H335.267V34.3946C335.267 31.7045 334.696 29.3799 333.561 27.4866C332.513 25.6298 330.975 24.1897 328.998 23.1883H328.99ZM327.958 40.5936L327.943 40.7106C327.804 41.8583 327.54 42.9475 327.152 43.9636C326.742 45.0528 326.163 46.025 325.394 46.9315C324.669 47.7941 323.775 48.4812 322.728 48.9783C321.717 49.4315 320.553 49.6655 319.242 49.6655C318.092 49.6655 317.066 49.49 316.202 49.1318L316.165 49.1172C315.272 48.7371 314.583 48.1888 314.114 47.4871C313.638 46.778 313.404 45.9227 313.404 44.9431C313.404 43.9636 313.646 43.0937 314.114 42.348C314.598 41.5805 315.382 41.003 316.458 40.6375L316.641 40.5717C317.645 40.2135 318.897 40.0307 320.355 40.0307H327.958V40.5571C327.958 40.5571 327.958 40.5863 327.958 40.6009V40.5936Z" fill="#101827"/>
<path d="M362.067 37.1213L361.899 37.0848L361.708 37.019C359.848 36.3757 357.695 35.8055 355.307 35.3377C353.703 34.9722 352.436 34.6286 351.418 34.285C350.319 33.8756 349.469 33.3932 348.876 32.8449C348.268 32.187 347.975 31.4852 347.975 30.7542C347.975 29.5919 348.466 28.6562 349.433 27.9837C350.407 27.2892 351.791 26.9383 353.549 26.9383C355.307 26.9383 356.655 27.2965 357.731 28.0422C358.727 28.6855 359.372 29.6065 359.65 30.7761H366.367C365.927 27.9179 364.631 25.6664 362.529 24.0801C360.331 22.3549 357.336 21.485 353.622 21.485C350.993 21.485 348.7 21.9309 346.803 22.8154C344.965 23.6488 343.522 24.8111 342.519 26.2658C341.566 27.7059 341.083 29.3653 341.083 31.2001C341.083 32.6841 341.398 33.956 342.013 34.9795C342.665 35.9956 343.544 36.8582 344.628 37.5234C345.778 38.2032 347.067 38.7807 348.451 39.2413C349.74 39.6214 351.073 39.9503 352.392 40.2208L352.97 40.3378C354.443 40.6375 355.732 40.9664 356.794 41.3246C357.922 41.639 358.808 42.1068 359.416 42.7136C360.053 43.3495 360.368 44.2414 360.368 45.3744C360.368 46.1347 360.148 46.8584 359.724 47.5236C359.299 48.1815 358.632 48.7298 357.746 49.1538L357.563 49.2269C356.721 49.5485 355.68 49.7093 354.391 49.7093C353.022 49.7093 351.755 49.4754 350.722 49.0295C349.711 48.569 348.898 47.9403 348.297 47.1654C347.763 46.4271 347.375 45.6303 347.14 44.7677H340.014C340.27 46.6976 340.951 48.452 342.042 49.9725C343.258 51.5588 344.914 52.8307 346.979 53.7518C349.088 54.6363 351.608 55.0823 354.457 55.0823C357.306 55.0823 359.482 54.6802 361.481 53.8103C363.408 52.9331 364.909 51.705 365.949 50.1699C367.033 48.6274 367.561 46.8365 367.517 44.8554C367.517 42.6551 366.997 40.9372 365.971 39.753C365.004 38.6345 363.686 37.75 362.045 37.1213H362.067Z" fill="#101827"/>
<path d="M214.327 30.9735V54.1173H221.497V31.7118H219.278L219.344 31.2878L222.699 8.22446H215.55L212.232 30.9735H214.327Z" fill="#101827"/>
<path d="M381.836 29.7893H390.742L391.79 22.6473H381.77V14.0433H374.665V47.0411V48.7809C374.665 51.7635 377.097 54.1904 380.085 54.1904H392.097V47.0484H381.829V29.8039L381.836 29.7893Z" fill="#101827"/>
<path d="M92.8661 11.4342C92.7782 9.35078 91.5111 7.5598 89.5701 6.75569L89.5188 6.73376L73.9325 0.381277C72.1747 -0.335114 70.1824 -0.0280894 68.7175 1.18539L46.4514 19.7311L46.4221 19.7092L41.9761 23.4154L41.4854 23.8687L36.666 27.8892L25.4962 18.5834C24.4196 17.6989 22.962 17.4723 21.6949 17.9986L15.5717 20.4914C14.1214 21.0762 13.1839 22.4651 13.1839 24.0295V39.9728C13.1839 41.4933 14.0482 42.8238 15.4398 43.4524L15.579 43.5109L21.6949 46.0037C22.9766 46.5081 24.4635 46.2814 25.4962 45.4115L36.6733 36.1058L42.0054 40.5503L20.8159 58.2042L20.5083 58.08L5.7643 52.0784V51.7129C5.75698 46.6689 5.74233 34.7973 5.74233 32.0048C5.74233 21.3174 5.74965 15.0527 5.7643 12.2968V11.9312L20.8013 5.80538L37.2812 19.5264L41.7418 15.8056L24.0314 1.08305C23.1231 0.373966 22.0098 0.00846106 20.8892 0.00846106C20.2373 0.00846106 19.5854 0.132733 18.9629 0.381277L3.37655 6.72645C1.34037 7.55249 0.0219732 9.49698 0.0219732 11.6681C0 16.0468 0 27.6041 0 31.4054V32.5969C0 36.3982 0 47.9555 0.0219732 52.3196C0.0219732 54.498 1.34037 56.4425 3.37655 57.2759L18.9775 63.6283C20.6988 64.3301 22.7203 64.0231 24.1412 62.8535L24.1778 62.8169L56.2368 36.1204L67.4065 45.4262C68.4612 46.3034 69.9261 46.5373 71.2152 46.0256L77.331 43.5402C78.7813 42.9554 79.7188 41.5664 79.7188 40.0021V24.0368C79.7188 22.4724 78.7813 21.0835 77.331 20.4987L71.2078 18.0059C69.9187 17.4796 68.4612 17.7062 67.3991 18.5908L56.2294 27.8965L50.8973 23.452L72.1014 5.81269L87.153 11.9386V12.3041C87.1604 17.348 87.175 29.2197 87.175 32.0121C87.175 43.0358 87.175 49.1105 87.153 51.7202V52.0857L72.0941 58.2115L71.8377 57.9995L55.5922 44.4685L51.1316 48.1894L68.7029 62.8242C70.1165 64.0085 72.1453 64.3447 73.9032 63.6283L89.5042 57.2759C91.533 56.4571 92.8514 54.5126 92.8588 52.3269L92.8734 42.239C92.8734 38.3207 92.8734 34.4829 92.8734 32.6042V31.091C92.8734 26.9462 92.8734 15.9299 92.8514 11.69V11.4415L92.8661 11.4342ZM32.5863 31.9829L31.8172 32.7212L22.7496 40.2799L18.8896 38.7082V25.3014L22.7496 23.7371L31.8172 31.2957L32.5863 31.9829ZM60.2286 31.9829L61.0709 31.2738L70.1458 23.7151L74.0058 25.2795V38.7009L70.1458 40.2652L61.0709 32.7066L60.2286 31.9902V31.9829ZM52.2596 31.9902L46.4587 36.8222L40.6358 31.9756L45.5797 27.86L46.4367 27.1509L47.2937 27.86L52.2523 31.9829L52.2596 31.9902Z" fill="#101827"/>
</svg>
